<?xml version="1.0" encoding="utf-8" ?><svg xmlns="http://www.w3.org/2000/svg" xmlns:xlink="http://www.w3.org/1999/xlink" width="860" height="830" viewBox="0 0 860 830" xmlns:c2pa="http://c2pa.org/manifest"><metadata><c2pa:manifest>AABRDWp1bWIAAAAeanVtZGMycGEAEQAQgAAAqgA4m3EDYzJwYQAAAA6EanVtYgAAAEdqdW1kYzJtYQARABCAAACqADibcQN1cm46YzJwYTozMTNlYjI2NC1iZjcxLTQxZDItYmVmMS1lODZhMjg2NWFmNmQAAAADtWp1bWIAAAApanVtZGMyYXMAEQAQgAAAqgA4m3EDYzJwYS5hc3NlcnRpb25zAAAAAMlqdW1iAAAARGp1bWRjYm9yABEAEIAAAKoAOJtxE2MycGEuaW5ncmVkaWVudC52MwAAAAAYYzJzaO+dn9UiJrytU8HwyyCUr/8AAAB9Y2JvcqRscmVsYXRpb25zaGlwaHBhcmVudE9maGRjOnRpdGxlZnNvdXJjZWlkYzpmb3JtYXRqaW1hZ2Uvd2VicGppbnN0YW5jZUlEeCx4bXA6aWlkOjQ2YmZlNjBmLWJmYTQtNDI0OC04ZGZlLWE5Y2MxZDI0YjU4ZAAAAfVqdW1iAAAAQWp1bWRjYm9yABEAEIAAAKoAOJtxE2MycGEuYWN0aW9ucy52MgAAAAAYYzJzaOMitfpusp0q2xLmb9sDXVkAAAGsY2JvcqFnYWN0aW9uc4KiZmFjdGlvbmtjMnBhLm9wZW5lZGpwYXJhbWV0ZXJzoWtpbmdyZWRpZW50c4GiY3VybHgtc2VsZiNqdW1iZj1jMnBhLmFzc2VydGlvbnMvYzJwYS5pbmdyZWRpZW50LnYzZGhhc2hYIDKTGyAoFP1RLTGcnp17plvy4qvKjHg51Jbtxti6ktVepGZhY3Rpb25rYzJwYS5lZGl0ZWRqcGFyYW1ldGVyc6FraW5ncmVkaWVudHOBomN1cmx4LXNlbGYjanVtYmY9YzJwYS5hc3NlcnRpb25zL2MycGEuaW5ncmVkaWVudC52M2RoYXNoWCAykxsgKBT9US0xnJ6de6Zb8uKryox4OdSW7cbYupLVXnFkaWdpdGFsU291cmNlVHlwZXhTaHR0cDovL2N2LmlwdGMub3JnL25ld3Njb2Rlcy9kaWdpdGFsc291cmNldHlwZS9jb21wb3NpdGVXaXRoVHJhaW5lZEFsZ29yaXRobWljTWVkaWFrZGVzY3JpcHRpb252Q3JlYXRlZCBieSBSZWNyYWZ0IEFJLgAAAMZqdW1iAAAAQGp1bWRjYm9yABEAEIAAAKoAOJtxE2MycGEuaGFzaC5kYXRhAAAAABhjMnNoGL6etVWxiqK/6VGzTWa/8AAAAH5jYm9ypWpleGNsdXNpb25zgaJlc3RhcnQaAAnovGZsZW5ndGgZDrJkbmFtZW5qdW1iZiBtYW5pZmVzdGNhbGdmc2hhMjU2ZGhhc2hYICg9icnXX4RZOBWKUQSUAhVk0KdF5blB6zyUX0k6ciBMY3BhZEgAAAAAAAAAAAAAAqRqdW1iAAAAJ2p1bWRjMmNsABEAEIAAAKoAOJtxA2MycGEuY2xhaW0udjIAAAACdWNib3Knamluc3RhbmNlSUR4LHhtcDppaWQ6YzlmOWM1ZTctNjg0ZC00NTg0LTk4YTUtMjA3ZjY4ZjlmZDAydGNsYWltX2dlbmVyYXRvcl9pbmZvo2RuYW1lanJlY3JhZnQuYWlndmVyc2lvbngoODFjZTgyZTJjNWMzY2JmYmU4YzZmYmUxNzlkNWY4ZDkxYzQwOWNlMXdvcmcuY29udGVudGF1dGguYzJwYV9yc2YwLjkwLjdpc2lnbmF0dXJleE1zZWxmI2p1bWJmPS9jMnBhL3VybjpjMnBhOjMxM2ViMjY0LWJmNzEtNDFkMi1iZWYxLWU4NmEyODY1YWY2ZC9jMnBhLnNpZ25hdHVyZXJjcmVhdGVkX2Fzc2VydGlvbnOComN1cmx4KnNlbGYjanVtYmY9YzJwYS5hc3NlcnRpb25zL2MycGEuYWN0aW9ucy52MmRoYXNoWCBA+f97WysgPmJXWnpYywj3Mp6/3xN10TO83c0oKxAM4qJjdXJseClzZWxmI2p1bWJmPWMycGEuYXNzZXJ0aW9ucy9jMnBhLmhhc2guZGF0YWRoYXNoWCDzbU7R1y0CN7dg5Zv2pw5K1hvDQNain0gGpSEt62sDuXNnYXRoZXJlZF9hc3NlcnRpb25zgaJjdXJseC1zZWxmI2p1bWJmPWMycGEuYXNzZXJ0aW9ucy9jMnBhLmluZ3JlZGllbnQudjNkaGFzaFggMpMbICgU/VEtMZyenXumW/Liq8qMeDnUlu3G2LqS1V5oZGM6dGl0bGV4GlJlY3JhZnQgQUkgR2VuZXJhdGVkIEltYWdlY2FsZ2ZzaGEyNTYAAAfcanVtYgAAAChqdW1kYzJjcwARABCAAACqADibcQNjMnBhLnNpZ25hdHVyZQAAAAesY2JvctKEWQOwogEmGCGCWQHnMIIB4zCCAYmgAwIBAgIJALfeWmNDUW56MAoGCCqGSM49BAMCMEAxHzAdBgNVBAMMFlJlY3JhZnQgU3RhZ2luZyBEZXYgQ0ExEDAOBgNVBAoMB1JlY3JhZnQxCzAJBgNVBAYTAlVTMB4XDTI2MDYxMjE5NDM1MFoXDTI3MDYxMjE5NDM1MFowNzELMAkGA1UEBhMCVVMxEzARBgNVBAoTClJlY3JhZnQgQUkxEzARBgNVBAMTCnJlY3JhZnQuYWkwWTATBgcqhkjOPQIBBggqhkjOPQMBBwNCAARKaTVbACsg/DeG3LeOxYdID/VA6EFG73E6Oknb+KIiCFJygRUz4ueN2z/t2qYb6CIUvS8RvgOiiClfoqsYtw81o3UwczAMBgNVHRMBAf8EAjAAMA4GA1UdDwEB/wQEAwIGwDATBgNVHSUEDDAKBggrBgEFBQcDBDAdBgNVHQ4EFgQULzHpBen96SL1y4IPHa8MkMshXf0wHwYDVR0jBBgwFoAUAgsqOBrKqpdK//m/kxZo7ZR4ebcwCgYIKoZIzj0EAwIDSAAwRQIgU8hKW0aXvvk8SQgVFNkax69Ym9ae8GsT2RZTQw+B51ACIQC0D4BkEoRD4N0r2ZRkNy0HZaW3WICy/QZGN95ilF4yzFkBvTCCAbkwggFfoAMCAQICCQCc+Wg7T6ATbzAKBggqhkjOPQQDAjBAMR8wHQYDVQQDDBZSZWNyYWZ0IFN0YWdpbmcgRGV2IENBMRAwDgYDVQQKDAdSZWNyYWZ0MQswCQYDVQQGEwJVUzAeFw0yNjA2MTIxOTQwMTZaFw0yODA2MTExOTQwMTZaMEAxHzAdBgNVBAMMFlJlY3JhZnQgU3RhZ2luZyBEZXYgQ0ExEDAOBgNVBAoMB1JlY3JhZnQxCzAJBgNVBAYTAlVTMFkwEwYHKoZIzj0CAQYIKoZIzj0DAQcDQgAEQ9IQBlcVbKaKPYrQSfOhL/00s7xUDC7RinIuLO/I1k99y9yh6oWF9kPxaP+tx1v1PeOL3yrVquJ730H0ZGiDyqNCMEAwDwYDVR0TAQH/BAUwAwEB/zAOBgNVHQ8BAf8EBAMCAYYwHQYDVR0OBBYEFAILKjgayqqXSv/5v5MWaO2UeHm3MAoGCCqGSM49BAMCA0gAMEUCIFQwNImLlYDeQhjgF+ZiqTbgcuzSqmOJw3Q2lQ/hu83FAiEA9O8cLm/xfoVLqB4jtdbuHzi3WL+p2RN+DRGkwpYswVuhY3BhZFkDpAAAAAAAAAAAAAAAAAAAAAAAAAAAAAAAAAAAAAAAAAAAAAAAAAAAAAAAAAAAAAAAAAAAAAAAAAAAAAAAAAAAAAAAAAAAAAAAAAAAAAAAAAAAAAAAAAAAAAAAAAAAAAAAAAAAAAAAAAAAAAAAAAAAAAAAAAAAAAAAAAAAAAAAAAAAAAAAAAAAAAAAAAAAAAAAAAAAAAAAAAAAAAAAAAAAAAAAAAAAAAAAAAAAAAAAAAAAAAAAAAAAAAAAAAAAAAAAAAAAAAAAAAAAAAAAAAAAAAAAAAAAAAAAAAAAAAAAAAAAAAAAAAAAAAAAAAAAAAAAAAAAAAAAAAAAAAAAAAAAAAAAAAAAAAAAAAAAAAAAAAAAAAAAAAAAAAAAAAAAAAAAAAAAAAAAAAAAAAAAAAAAAAAAAAAAAAAAAAAAAAAAAAAAAAAAAAAAAAAAAAAAAAAAAAAAAAAAAAAAAAAAAAAAAAAAAAAAAAAAAAAAAAAAAAAAAAAAAAAAAAAAAAAAAAAAAAAAAAAAAAAAAAAAAAAAAAAAAAAAAAAAAAAAAAAAAAAAAAAAAAAAAAAAAAAAAAAAAAAAAAAAAAAAAAAAAAAAAAAAAAAAAAAAAAAAAAAAAAAAAAAAAAAAAAAAAAAAAAAAAAAAAAAAAAAAAAAAAAAAAAAAAAAAAAAAAAAAAAAAAAAAAAAAAAAAAAAAAAAAAAAAAAAAAAAAAAAAAAAAAAAAAAAAAAAAAAAAAAAAAAAAAAAAAAAAAAAAAAAAAAAAAAAAAAAAAAAAAAAAAAAAAAAAAAAAAAAAAAAAAAAAAAAAAAAAAAAAAAAAAAAAAAAAAAAAAAAAAAAAAAAAAAAAAAAAAAAAAAAAAAAAAAAAAAAAAAAAAAAAAAAAAAAAAAAAAAAAAAAAAAAAAAAAAAAAAAAAAAAAAAAAAAAAAAAAAAAAAAAAAAAAAAAAAAAAAAAAAAAAAAAAAAAAAAAAAAAAAAAAAAAAAAAAAAAAAAAAAAAAAAAAAAAAAAAAAAAAAAAAAAAAAAAAAAAAAAAAAAAAAAAAAAAAAAAAAAAAAAAAAAAAAAAAAAAAAAAAAAAAAAAAAAAAAAAAAAAAAAAAAAAAAAAAAAAAAAAAAAAAAAAAAAAAAAAAAAAAAAAAAAAAAAAAAAAAAAAAAAAAAAAAAAAAAAAAAAAAAAAAAAAAAAAAAAAAAAAAAAAAAAAAAAAAAAAAAAAAAAAAAAAAAAAAAAAAAAAAAAAAAAAA9lhADCIZnaQLRRBMu7MrMGUllh/AkZkEZoyNrj1Mel1ZdYfxjf+G9MQ5jcjm9SbJhKMWLM86lABBUr+reF6BT8FftQAAFk1qdW1iAAAAR2p1bWRjMm1hABEAEIAAAKoAOJtxA3VybjpjMnBhOjc1YmEwMTlkLWQ2MmItNDQ3Ni1hNzFkLWY1MDIxN2Y5NTcwMQAAAAt+anVtYgAAAClqdW1kYzJhcwARABCAAACqADibcQNjMnBhLmFzc2VydGlvbnMAAAAIkmp1bWIAAABEanVtZGNib3IAEQAQgAAAqgA4m3ETYzJwYS5pbmdyZWRpZW50LnYzAAAAABhjMnNonvJZWLGM3pZWue08Uqlp0wAACEZjYm9yp2xyZWxhdGlvbnNoaXBocGFyZW50T2ZoZGM6dGl0bGVmc291cmNlaWRjOmZvcm1hdGppbWFnZS93ZWJwcXZhbGlkYXRpb25SZXN1bHRzom5hY3RpdmVNYW5pZmVzdKNnc3VjY2Vzc4ajZGNvZGV4HWNsYWltU2lnbmF0dXJlLmluc2lkZVZhbGlkaXR5Y3VybHhNc2VsZiNqdW1iZj0vYzJwYS91cm46YzJwYTozMTNlYjI2NC1iZjcxLTQxZDItYmVmMS1lODZhMjg2NWFmNmQvYzJwYS5zaWduYXR1cmVrZXhwbGFuYXRpb251Y2xhaW0gc2lnbmF0dXJlIHZhbGlko2Rjb2RleBhjbGFpbVNpZ25hdHVyZS52YWxpZGF0ZWRjdXJseE1zZWxmI2p1bWJmPS9jMnBhL3VybjpjMnBhOjMxM2ViMjY0LWJmNzEtNDFkMi1iZWYxLWU4NmEyODY1YWY2ZC9jMnBhLnNpZ25hdHVyZWtleHBsYW5hdGlvbnVjbGFpbSBzaWduYXR1cmUgdmFsaWSjZGNvZGV4GWFzc2VydGlvbi5oYXNoZWRVUkkubWF0Y2hjdXJseF5zZWxmI2p1bWJmPS9jMnBhL3VybjpjMnBhOjMxM2ViMjY0LWJmNzEtNDFkMi1iZWYxLWU4NmEyODY1YWY2ZC9jMnBhLmFzc2VydGlvbnMvYzJwYS5hY3Rpb25zLnYya2V4cGxhbmF0aW9ueD5oYXNoZWQgdXJpIG1hdGNoZWQ6IHNlbGYjanVtYmY9YzJwYS5hc3NlcnRpb25zL2MycGEuYWN0aW9ucy52MqNkY29kZXgZYXNzZXJ0aW9uLmhhc2hlZFVSSS5tYXRjaGN1cmx4XXNlbGYjanVtYmY9L2MycGEvdXJuOmMycGE6MzEzZWIyNjQtYmY3MS00MWQyLWJlZjEtZTg2YTI4NjVhZjZkL2MycGEuYXNzZXJ0aW9ucy9jMnBhLmhhc2guZGF0YWtleHBsYW5hdGlvbng9aGFzaGVkIHVyaSBtYXRjaGVkOiBzZWxmI2p1bWJmPWMycGEuYXNzZXJ0aW9ucy9jMnBhLmhhc2guZGF0YaNkY29kZXgZYXNzZXJ0aW9uLmhhc2hlZFVSSS5tYXRjaGN1cmx4YXNlbGYjanVtYmY9L2MycGEvdXJuOmMycGE6MzEzZWIyNjQtYmY3MS00MWQyLWJlZjEtZTg2YTI4NjVhZjZkL2MycGEuYXNzZXJ0aW9ucy9jMnBhLmluZ3JlZGllbnQudjNrZXhwbGFuYXRpb254QWhhc2hlZCB1cmkgbWF0Y2hlZDogc2VsZiNqdW1iZj1jMnBhLmFzc2VydGlvbnMvYzJwYS5pbmdyZWRpZW50LnYzo2Rjb2RleBhhc3NlcnRpb24uZGF0YUhhc2gubWF0Y2hjdXJseF1zZWxmI2p1bWJmPS9jMnBhL3VybjpjMnBhOjMxM2ViMjY0LWJmNzEtNDFkMi1iZWYxLWU4NmEyODY1YWY2ZC9jMnBhLmFzc2VydGlvbnMvYzJwYS5oYXNoLmRhdGFrZXhwbGFuYXRpb25vZGF0YSBoYXNoIHZhbGlkbWluZm9ybWF0aW9uYWyAZ2ZhaWx1cmWBo2Rjb2RleBtzaWduaW5nQ3JlZGVudGlhbC51bnRydXN0ZWRjdXJseE1zZWxmI2p1bWJmPS9jMnBhL3VybjpjMnBhOjMxM2ViMjY0LWJmNzEtNDFkMi1iZWYxLWU4NmEyODY1YWY2ZC9jMnBhLnNpZ25hdHVyZWtleHBsYW5hdGlvbngdc2lnbmluZyBjZXJ0aWZpY2F0ZSB1bnRydXN0ZWRwaW5ncmVkaWVudERlbHRhc4GidmluZ3JlZGllbnRBc3NlcnRpb25VUkl4YXNlbGYjanVtYmY9L2MycGEvdXJuOmMycGE6MzEzZWIyNjQtYmY3MS00MWQyLWJlZjEtZTg2YTI4NjVhZjZkL2MycGEuYXNzZXJ0aW9ucy9jMnBhLmluZ3JlZGllbnQudjNwdmFsaWRhdGlvbkRlbHRhc6Nnc3VjY2Vzc4BtaW5mb3JtYXRpb25hbIGjZGNvZGV4HGluZ3JlZGllbnQudW5rbm93blByb3ZlbmFuY2VjdXJseGFzZWxmI2p1bWJmPS9jMnBhL3VybjpjMnBhOjMxM2ViMjY0LWJmNzEtNDFkMi1iZWYxLWU4NmEyODY1YWY2ZC9jMnBhLmFzc2VydGlvbnMvYzJwYS5pbmdyZWRpZW50LnYza2V4cGxhbmF0aW9ueCtzb3VyY2U6IGluZ3JlZGllbnQgZG9lcyBub3QgaGF2ZSBwcm92ZW5hbmNlZ2ZhaWx1cmWAamluc3RhbmNlSUR4LHhtcDppaWQ6OTk2NzFlOGQtZTA1Yy00YjdmLWE0MTctYzJkN2Y5ZWVjYzY0bmFjdGl2ZU1hbmlmZXN0o2N1cmx4PnNlbGYjanVtYmY9L2MycGEvdXJuOmMycGE6MzEzZWIyNjQtYmY3MS00MWQyLWJlZjEtZTg2YTI4NjVhZjZkY2FsZ2ZzaGEyNTZkaGFzaFgg3xLM8CnVXnwJGEgw9vcLE6tFmejMBvfnCnRVTwEi9kJuY2xhaW1TaWduYXR1cmWjY3VybHhNc2VsZiNqdW1iZj0vYzJwYS91cm46YzJwYTozMTNlYjI2NC1iZjcxLTQxZDItYmVmMS1lODZhMjg2NWFmNmQvYzJwYS5zaWduYXR1cmVjYWxnZnNoYTI1NmRoYXNoWCDsxJ+iJJQ9FFYJFl2wyqxG4WVvmXtyQoAh/7cT25WC7gAAAfVqdW1iAAAAQWp1bWRjYm9yABEAEIAAAKoAOJtxE2MycGEuYWN0aW9ucy52MgAAAAAYYzJzaF24FOWE4/aNzrC++RS0xLAAAAGsY2JvcqFnYWN0aW9uc4KiZmFjdGlvbmtjMnBhLm9wZW5lZGpwYXJhbWV0ZXJzoWtpbmdyZWRpZW50c4GiY3VybHgtc2VsZiNqdW1iZj1jMnBhLmFzc2VydGlvbnMvYzJwYS5pbmdyZWRpZW50LnYzZGhhc2hYIEhyDqYS092eeQ9zZ6IB78CNBHBUmKFjHRnhjP07ZNmGpGZhY3Rpb25rYzJwYS5lZGl0ZWRqcGFyYW1ldGVyc6FraW5ncmVkaWVudHOBomN1cmx4LXNlbGYjanVtYmY9YzJwYS5hc3NlcnRpb25zL2MycGEuaW5ncmVkaWVudC52M2RoYXNoWCBIcg6mEtPdnnkPc2eiAe/AjQRwVJihYx0Z4Yz9O2TZhnFkaWdpdGFsU291cmNlVHlwZXhTaHR0cDovL2N2LmlwdGMub3JnL25ld3Njb2Rlcy9kaWdpdGFsc291cmNldHlwZS9jb21wb3NpdGVXaXRoVHJhaW5lZEFsZ29yaXRobWljTWVkaWFrZGVzY3JpcHRpb252Q3JlYXRlZCBieSBSZWNyYWZ0IEFJLgAAAMZqdW1iAAAAQGp1bWRjYm9yABEAEIAAAKoAOJtxE2MycGEuaGFzaC5kYXRhAAAAABhjMnNo59+6+FYOoFC24BqhLSiVqwAAAH5jYm9ypWpleGNsdXNpb25zgaJlc3RhcnQaAAXj4GZsZW5ndGgZJP9kbmFtZW5qdW1iZiBtYW5pZmVzdGNhbGdmc2hhMjU2ZGhhc2hYIAOUF2D56kDc26o2A6PeIGYGI5kZJJHpXnYh8Em6SwQAY3BhZEgAAAAAAAAAAAAAAqRqdW1iAAAAJ2p1bWRjMmNsABEAEIAAAKoAOJtxA2MycGEuY2xhaW0udjIAAAACdWNib3Knamluc3RhbmNlSUR4LHhtcDppaWQ6NWJhZGFhNDktNGQyZi00OTcyLWE1MDUtMWY0ZTk5NDY5Nzc1dGNsYWltX2dlbmVyYXRvcl9pbmZvo2RuYW1lanJlY3JhZnQuYWlndmVyc2lvbngoODFjZTgyZTJjNWMzY2JmYmU4YzZmYmUxNzlkNWY4ZDkxYzQwOWNlMXdvcmcuY29udGVudGF1dGguYzJwYV9yc2YwLjkwLjdpc2lnbmF0dXJleE1zZWxmI2p1bWJmPS9jMnBhL3VybjpjMnBhOjc1YmEwMTlkLWQ2MmItNDQ3Ni1hNzFkLWY1MDIxN2Y5NTcwMS9jMnBhLnNpZ25hdHVyZXJjcmVhdGVkX2Fzc2VydGlvbnOComN1cmx4KnNlbGYjanVtYmY9YzJwYS5hc3NlcnRpb25zL2MycGEuYWN0aW9ucy52MmRoYXNoWCAhWFTba334Qa9d4erA4uYnvaKyJ2XdtE9JmPd/3k92OKJjdXJseClzZWxmI2p1bWJmPWMycGEuYXNzZXJ0aW9ucy9jMnBhLmhhc2guZGF0YWRoYXNoWCA4fDNBWpKceY6ZA9N0pInUnOA9z2TakBtk7x0yFScnm3NnYXRoZXJlZF9hc3NlcnRpb25zgaJjdXJseC1zZWxmI2p1bWJmPWMycGEuYXNzZXJ0aW9ucy9jMnBhLmluZ3JlZGllbnQudjNkaGFzaFggSHIOphLT3Z55D3NnogHvwI0EcFSYoWMdGeGM/Ttk2YZoZGM6dGl0bGV4GlJlY3JhZnQgQUkgR2VuZXJhdGVkIEltYWdlY2FsZ2ZzaGEyNTYAAAfcanVtYgAAAChqdW1kYzJjcwARABCAAACqADibcQNjMnBhLnNpZ25hdHVyZQAAAAesY2JvctKEWQOwogEmGCGCWQHnMIIB4zCCAYmgAwIBAgIJALfeWmNDUW56MAoGCCqGSM49BAMCMEAxHzAdBgNVBAMMFlJlY3JhZnQgU3RhZ2luZyBEZXYgQ0ExEDAOBgNVBAoMB1JlY3JhZnQxCzAJBgNVBAYTAlVTMB4XDTI2MDYxMjE5NDM1MFoXDTI3MDYxMjE5NDM1MFowNzELMAkGA1UEBhMCVVMxEzARBgNVBAoTClJlY3JhZnQgQUkxEzARBgNVBAMTCnJlY3JhZnQuYWkwWTATBgcqhkjOPQIBBggqhkjOPQMBBwNCAARKaTVbACsg/DeG3LeOxYdID/VA6EFG73E6Oknb+KIiCFJygRUz4ueN2z/t2qYb6CIUvS8RvgOiiClfoqsYtw81o3UwczAMBgNVHRMBAf8EAjAAMA4GA1UdDwEB/wQEAwIGwDATBgNVHSUEDDAKBggrBgEFBQcDBDAdBgNVHQ4EFgQULzHpBen96SL1y4IPHa8MkMshXf0wHwYDVR0jBBgwFoAUAgsqOBrKqpdK//m/kxZo7ZR4ebcwCgYIKoZIzj0EAwIDSAAwRQIgU8hKW0aXvvk8SQgVFNkax69Ym9ae8GsT2RZTQw+B51ACIQC0D4BkEoRD4N0r2ZRkNy0HZaW3WICy/QZGN95ilF4yzFkBvTCCAbkwggFfoAMCAQICCQCc+Wg7T6ATbzAKBggqhkjOPQQDAjBAMR8wHQYDVQQDDBZSZWNyYWZ0IFN0YWdpbmcgRGV2IENBMRAwDgYDVQQKDAdSZWNyYWZ0MQswCQYDVQQGEwJVUzAeFw0yNjA2MTIxOTQwMTZaFw0yODA2MTExOTQwMTZaMEAxHzAdBgNVBAMMFlJlY3JhZnQgU3RhZ2luZyBEZXYgQ0ExEDAOBgNVBAoMB1JlY3JhZnQxCzAJBgNVBAYTAlVTMFkwEwYHKoZIzj0CAQYIKoZIzj0DAQcDQgAEQ9IQBlcVbKaKPYrQSfOhL/00s7xUDC7RinIuLO/I1k99y9yh6oWF9kPxaP+tx1v1PeOL3yrVquJ730H0ZGiDyqNCMEAwDwYDVR0TAQH/BAUwAwEB/zAOBgNVHQ8BAf8EBAMCAYYwHQYDVR0OBBYEFAILKjgayqqXSv/5v5MWaO2UeHm3MAoGCCqGSM49BAMCA0gAMEUCIFQwNImLlYDeQhjgF+ZiqTbgcuzSqmOJw3Q2lQ/hu83FAiEA9O8cLm/xfoVLqB4jtdbuHzi3WL+p2RN+DRGkwpYswVuhY3BhZFkDpAAAAAAAAAAAAAAAAAAAAAAAAAAAAAAAAAAAAAAAAAAAAAAAAAAAAAAAAAAAAAAAAAAAAAAAAAAAAAAAAAAAAAAAAAAAAAAAAAAAAAAAAAAAAAAAAAAAAAAAAAAAAAAAAAAAAAAAAAAAAAAAAAAAAAAAAAAAAAAAAAAAAAAAAAAAAAAAAAAAAAAAAAAAAAAAAAAAAAAAAAAAAAAAAAAAAAAAAAAAAAAAAAAAAAAAAAAAAAAAAAAAAAAAAAAAAAAAAAAAAAAAAAAAAAAAAAAAAAAAAAAAAAAAAAAAAAAAAAAAAAAAAAAAAAAAAAAAAAAAAAAAAAAAAAAAAAAAAAAAAAAAAAAAAAAAAAAAAAAAAAAAAAAAAAAAAAAAAAAAAAAAAAAAAAAAAAAAAAAAAAAAAAAAAAAAAAAAAAAAAAAAAAAAAAAAAAAAAAAAAAAAAAAAAAAAAAAAAAAAAAAAAAAAAAAAAAAAAAAAAAAAAAAAAAAAAAAAAAAAAAAAAAAAAAAAAAAAAAAAAAAAAAAAAAAAAAAAAAAAAAAAAAAAAAAAAAAAAAAAAAAAAAAAAAAAAAAAAAAAAAAAAAAAAAAAAAAAAAAAAAAAAAAAAAAAAAAAAAAAAAAAAAAAAAAAAAAAAAAAAAAAAAAAAAAAAAAAAAAAAAAAAAAAAAAAAAAAAAAAAAAAAAAAAAAAAAAAAAAAAAAAAAAAAAAAAAAAAAAAAAAAAAAAAAAAAAAAAAAAAAAAAAAAAAAAAAAAAAAAAAAAAAAAAAAAAAAAAAAAAAAAAAAAAAAAAAAAAAAAAAAAAAAAAAAAAAAAAAAAAAAAAAAAAAAAAAAAAAAAAAAAAAAAAAAAAAAAAAAAAAAAAAAAAAAAAAAAAAAAAAAAAAAAAAAAAAAAAAAAAAAAAAAAAAAAAAAAAAAAAAAAAAAAAAAAAAAAAAAAAAAAAAAAAAAAAAAAAAAAAAAAAAAAAAAAAAAAAAAAAAAAAAAAAAAAAAAAAAAAAAAAAAAAAAAAAAAAAAAAAAAAAAAAAAAAAAAAAAAAAAAAAAAAAAAAAAAAAAAAAAAAAAAAAAAAAAAAAAAAAAAAAAAAAAAAAAAAAAAAAAAAAAAAAAAAAAAAAAAAAAAAAAAAAAAAAAAAAAAAAAAAAAAAAAAAAAAAAAAAAAAAAAAAAAAAAAAAAAAAAAAAAAAAAAAAAAAAAAAAAAAAAAAAAAAAAAAAAAAAAAAAAAAAAAAAAAAAAAAAAAAA9lhAyx3FGcTHTYE52ZO4HBEujWXB8TvOH07YkxnGQS7UnCcCY1YHA+tMOxO2nZrndUu+Mba7ggaQCvq5VHgf8OrA6wAAFhRqdW1iAAAAR2p1bWRjMm1hABEAEIAAAKoAOJtxA3VybjpjMnBhOjU0NmU1ZWJjLTgzZGItNDE4NS05NTUzLTg0OTBmMmMyNTQ3OAAAAAtFanVtYgAAAClqdW1kYzJhcwARABCAAACqADibcQNjMnBhLmFzc2VydGlvbnMAAAAIW2p1bWIAAABEanVtZGNib3IAEQAQgAAAqgA4m3ETYzJwYS5pbmdyZWRpZW50LnYzAAAAABhjMnNozdATZwWYmV5hshHI3tikSwAACA9jYm9yp2xyZWxhdGlvbnNoaXBocGFyZW50T2ZoZGM6dGl0bGVmc291cmNlaWRjOmZvcm1hdGppbWFnZS93ZWJwcXZhbGlkYXRpb25SZXN1bHRzom5hY3RpdmVNYW5pZmVzdKNnc3VjY2Vzc4ajZGNvZGV4HWNsYWltU2lnbmF0dXJlLmluc2lkZVZhbGlkaXR5Y3VybHhNc2VsZiNqdW1iZj0vYzJwYS91cm46YzJwYTo3NWJhMDE5ZC1kNjJiLTQ0NzYtYTcxZC1mNTAyMTdmOTU3MDEvYzJwYS5zaWduYXR1cmVrZXhwbGFuYXRpb251Y2xhaW0gc2lnbmF0dXJlIHZhbGlko2Rjb2RleBhjbGFpbVNpZ25hdHVyZS52YWxpZGF0ZWRjdXJseE1zZWxmI2p1bWJmPS9jMnBhL3VybjpjMnBhOjc1YmEwMTlkLWQ2MmItNDQ3Ni1hNzFkLWY1MDIxN2Y5NTcwMS9jMnBhLnNpZ25hdHVyZWtleHBsYW5hdGlvbnVjbGFpbSBzaWduYXR1cmUgdmFsaWSjZGNvZGV4GWFzc2VydGlvbi5oYXNoZWRVUkkubWF0Y2hjdXJseF5zZWxmI2p1bWJmPS9jMnBhL3VybjpjMnBhOjc1YmEwMTlkLWQ2MmItNDQ3Ni1hNzFkLWY1MDIxN2Y5NTcwMS9jMnBhLmFzc2VydGlvbnMvYzJwYS5hY3Rpb25zLnYya2V4cGxhbmF0aW9ueD5oYXNoZWQgdXJpIG1hdGNoZWQ6IHNlbGYjanVtYmY9YzJwYS5hc3NlcnRpb25zL2MycGEuYWN0aW9ucy52MqNkY29kZXgZYXNzZXJ0aW9uLmhhc2hlZFVSSS5tYXRjaGN1cmx4XXNlbGYjanVtYmY9L2MycGEvdXJuOmMycGE6NzViYTAxOWQtZDYyYi00NDc2LWE3MWQtZjUwMjE3Zjk1NzAxL2MycGEuYXNzZXJ0aW9ucy9jMnBhLmhhc2guZGF0YWtleHBsYW5hdGlvbng9aGFzaGVkIHVyaSBtYXRjaGVkOiBzZWxmI2p1bWJmPWMycGEuYXNzZXJ0aW9ucy9jMnBhLmhhc2guZGF0YaNkY29kZXgZYXNzZXJ0aW9uLmhhc2hlZFVSSS5tYXRjaGN1cmx4YXNlbGYjanVtYmY9L2MycGEvdXJuOmMycGE6NzViYTAxOWQtZDYyYi00NDc2LWE3MWQtZjUwMjE3Zjk1NzAxL2MycGEuYXNzZXJ0aW9ucy9jMnBhLmluZ3JlZGllbnQudjNrZXhwbGFuYXRpb254QWhhc2hlZCB1cmkgbWF0Y2hlZDogc2VsZiNqdW1iZj1jMnBhLmFzc2VydGlvbnMvYzJwYS5pbmdyZWRpZW50LnYzo2Rjb2RleBhhc3NlcnRpb24uZGF0YUhhc2gubWF0Y2hjdXJseF1zZWxmI2p1bWJmPS9jMnBhL3VybjpjMnBhOjc1YmEwMTlkLWQ2MmItNDQ3Ni1hNzFkLWY1MDIxN2Y5NTcwMS9jMnBhLmFzc2VydGlvbnMvYzJwYS5oYXNoLmRhdGFrZXhwbGFuYXRpb25vZGF0YSBoYXNoIHZhbGlkbWluZm9ybWF0aW9uYWyAZ2ZhaWx1cmWBo2Rjb2RleBtzaWduaW5nQ3JlZGVudGlhbC51bnRydXN0ZWRjdXJseE1zZWxmI2p1bWJmPS9jMnBhL3VybjpjMnBhOjc1YmEwMTlkLWQ2MmItNDQ3Ni1hNzFkLWY1MDIxN2Y5NTcwMS9jMnBhLnNpZ25hdHVyZWtleHBsYW5hdGlvbngdc2lnbmluZyBjZXJ0aWZpY2F0ZSB1bnRydXN0ZWRwaW5ncmVkaWVudERlbHRhc4GidmluZ3JlZGllbnRBc3NlcnRpb25VUkl4YXNlbGYjanVtYmY9L2MycGEvdXJuOmMycGE6NzViYTAxOWQtZDYyYi00NDc2LWE3MWQtZjUwMjE3Zjk1NzAxL2MycGEuYXNzZXJ0aW9ucy9jMnBhLmluZ3JlZGllbnQudjNwdmFsaWRhdGlvbkRlbHRhc6Nnc3VjY2Vzc4GjZGNvZGV4HWluZ3JlZGllbnQubWFuaWZlc3QudmFsaWRhdGVkY3VybHg+c2VsZiNqdW1iZj0vYzJwYS91cm46YzJwYTozMTNlYjI2NC1iZjcxLTQxZDItYmVmMS1lODZhMjg2NWFmNmRrZXhwbGFuYXRpb253aW5ncmVkaWVudCBoYXNoIG1hdGNoZWRtaW5mb3JtYXRpb25hbIBnZmFpbHVyZYBqaW5zdGFuY2VJRHgseG1wOmlpZDo5YTY4MWJiMS03NzFiLTRjYmQtOGZkNS05NmQ1MDdmNDcxYmRuYWN0aXZlTWFuaWZlc3SjY3VybHg+c2VsZiNqdW1iZj0vYzJwYS91cm46YzJwYTo3NWJhMDE5ZC1kNjJiLTQ0NzYtYTcxZC1mNTAyMTdmOTU3MDFjYWxnZnNoYTI1NmRoYXNoWCCTcWuiHRobokLof19ylBk7jYjOJ5notQMjKNv9BpycxW5jbGFpbVNpZ25hdHVyZaNjdXJseE1zZWxmI2p1bWJmPS9jMnBhL3VybjpjMnBhOjc1YmEwMTlkLWQ2MmItNDQ3Ni1hNzFkLWY1MDIxN2Y5NTcwMS9jMnBhLnNpZ25hdHVyZWNhbGdmc2hhMjU2ZGhhc2hYIMLFSmn5HBWk3+Vfa1L7w9/xWsYdspsuk7R5hMqCs7ktAAAB9Wp1bWIAAABBanVtZGNib3IAEQAQgAAAqgA4m3ETYzJwYS5hY3Rpb25zLnYyAAAAABhjMnNoOtjKoMrkJgFJhzxYB/CB3QAAAaxjYm9yoWdhY3Rpb25zgqJmYWN0aW9ua2MycGEub3BlbmVkanBhcmFtZXRlcnOha2luZ3JlZGllbnRzgaJjdXJseC1zZWxmI2p1bWJmPWMycGEuYXNzZXJ0aW9ucy9jMnBhLmluZ3JlZGllbnQudjNkaGFzaFggGUXyYqb60DS72GI5dZaOtmHC4u/oCqbOlxvNFt80db6kZmFjdGlvbmtjMnBhLmVkaXRlZGpwYXJhbWV0ZXJzoWtpbmdyZWRpZW50c4GiY3VybHgtc2VsZiNqdW1iZj1jMnBhLmFzc2VydGlvbnMvYzJwYS5pbmdyZWRpZW50LnYzZGhhc2hYIBlF8mKm+tA0u9hiOXWWjrZhwuLv6AqmzpcbzRbfNHW+cWRpZ2l0YWxTb3VyY2VUeXBleFNodHRwOi8vY3YuaXB0Yy5vcmcvbmV3c2NvZGVzL2RpZ2l0YWxzb3VyY2V0eXBlL2NvbXBvc2l0ZVdpdGhUcmFpbmVkQWxnb3JpdGhtaWNNZWRpYWtkZXNjcmlwdGlvbnZDcmVhdGVkIGJ5IFJlY3JhZnQgQUkuAAAAxGp1bWIAAABAanVtZGNib3IAEQAQgAAAqgA4m3ETYzJwYS5oYXNoLmRhdGEAAAAAGGMyc2ilWSeCXRH4CGyvI5tjrrPgAAAAfGNib3KlamV4Y2x1c2lvbnOBomVzdGFydBjbZmxlbmd0aBlOvGRuYW1lbmp1bWJmIG1hbmlmZXN0Y2FsZ2ZzaGEyNTZkaGFzaFggZMMgEadXlywn0vx+BLNzs8rjRT//g8Az7fvBlPhqe41jcGFkSQAAAAAAAAAAAAAAAqRqdW1iAAAAJ2p1bWRjMmNsABEAEIAAAKoAOJtxA2MycGEuY2xhaW0udjIAAAACdWNib3Knamluc3RhbmNlSUR4LHhtcDppaWQ6YWRkZjMyYjktMGNmMC00ODRlLTgxZDEtN2I2ODQ4ZTMzOGIzdGNsYWltX2dlbmVyYXRvcl9pbmZvo2RuYW1lanJlY3JhZnQuYWlndmVyc2lvbngoODFjZTgyZTJjNWMzY2JmYmU4YzZmYmUxNzlkNWY4ZDkxYzQwOWNlMXdvcmcuY29udGVudGF1dGguYzJwYV9yc2YwLjkwLjdpc2lnbmF0dXJleE1zZWxmI2p1bWJmPS9jMnBhL3VybjpjMnBhOjU0NmU1ZWJjLTgzZGItNDE4NS05NTUzLTg0OTBmMmMyNTQ3OC9jMnBhLnNpZ25hdHVyZXJjcmVhdGVkX2Fzc2VydGlvbnOComN1cmx4KnNlbGYjanVtYmY9YzJwYS5hc3NlcnRpb25zL2MycGEuYWN0aW9ucy52MmRoYXNoWCDdqCa8zCI6ICaIdRZBg71EEHTKPgK77qxQR4ozgVnyZ6JjdXJseClzZWxmI2p1bWJmPWMycGEuYXNzZXJ0aW9ucy9jMnBhLmhhc2guZGF0YWRoYXNoWCCHXXSXMMjH35oKiWu3/5RFMpAvkvjak/fYyGyzEhgqE3NnYXRoZXJlZF9hc3NlcnRpb25zgaJjdXJseC1zZWxmI2p1bWJmPWMycGEuYXNzZXJ0aW9ucy9jMnBhLmluZ3JlZGllbnQudjNkaGFzaFggGUXyYqb60DS72GI5dZaOtmHC4u/oCqbOlxvNFt80db5oZGM6dGl0bGV4GlJlY3JhZnQgQUkgR2VuZXJhdGVkIEltYWdlY2FsZ2ZzaGEyNTYAAAfcanVtYgAAAChqdW1kYzJjcwARABCAAACqADibcQNjMnBhLnNpZ25hdHVyZQAAAAesY2JvctKEWQOwogEmGCGCWQHnMIIB4zCCAYmgAwIBAgIJALfeWmNDUW56MAoGCCqGSM49BAMCMEAxHzAdBgNVBAMMFlJlY3JhZnQgU3RhZ2luZyBEZXYgQ0ExEDAOBgNVBAoMB1JlY3JhZnQxCzAJBgNVBAYTAlVTMB4XDTI2MDYxMjE5NDM1MFoXDTI3MDYxMjE5NDM1MFowNzELMAkGA1UEBhMCVVMxEzARBgNVBAoTClJlY3JhZnQgQUkxEzARBgNVBAMTCnJlY3JhZnQuYWkwWTATBgcqhkjOPQIBBggqhkjOPQMBBwNCAARKaTVbACsg/DeG3LeOxYdID/VA6EFG73E6Oknb+KIiCFJygRUz4ueN2z/t2qYb6CIUvS8RvgOiiClfoqsYtw81o3UwczAMBgNVHRMBAf8EAjAAMA4GA1UdDwEB/wQEAwIGwDATBgNVHSUEDDAKBggrBgEFBQcDBDAdBgNVHQ4EFgQULzHpBen96SL1y4IPHa8MkMshXf0wHwYDVR0jBBgwFoAUAgsqOBrKqpdK//m/kxZo7ZR4ebcwCgYIKoZIzj0EAwIDSAAwRQIgU8hKW0aXvvk8SQgVFNkax69Ym9ae8GsT2RZTQw+B51ACIQC0D4BkEoRD4N0r2ZRkNy0HZaW3WICy/QZGN95ilF4yzFkBvTCCAbkwggFfoAMCAQICCQCc+Wg7T6ATbzAKBggqhkjOPQQDAjBAMR8wHQYDVQQDDBZSZWNyYWZ0IFN0YWdpbmcgRGV2IENBMRAwDgYDVQQKDAdSZWNyYWZ0MQswCQYDVQQGEwJVUzAeFw0yNjA2MTIxOTQwMTZaFw0yODA2MTExOTQwMTZaMEAxHzAdBgNVBAMMFlJlY3JhZnQgU3RhZ2luZyBEZXYgQ0ExEDAOBgNVBAoMB1JlY3JhZnQxCzAJBgNVBAYTAlVTMFkwEwYHKoZIzj0CAQYIKoZIzj0DAQcDQgAEQ9IQBlcVbKaKPYrQSfOhL/00s7xUDC7RinIuLO/I1k99y9yh6oWF9kPxaP+tx1v1PeOL3yrVquJ730H0ZGiDyqNCMEAwDwYDVR0TAQH/BAUwAwEB/zAOBgNVHQ8BAf8EBAMCAYYwHQYDVR0OBBYEFAILKjgayqqXSv/5v5MWaO2UeHm3MAoGCCqGSM49BAMCA0gAMEUCIFQwNImLlYDeQhjgF+ZiqTbgcuzSqmOJw3Q2lQ/hu83FAiEA9O8cLm/xfoVLqB4jtdbuHzi3WL+p2RN+DRGkwpYswVuhY3BhZFkDpAAAAAAAAAAAAAAAAAAAAAAAAAAAAAAAAAAAAAAAAAAAAAAAAAAAAAAAAAAAAAAAAAAAAAAAAAAAAAAAAAAAAAAAAAAAAAAAAAAAAAAAAAAAAAAAAAAAAAAAAAAAAAAAAAAAAAAAAAAAAAAAAAAAAAAAAAAAAAAAAAAAAAAAAAAAAAAAAAAAAAAAAAAAAAAAAAAAAAAAAAAAAAAAAAAAAAAAAAAAAAAAAAAAAAAAAAAAAAAAAAAAAAAAAAAAAAAAAAAAAAAAAAAAAAAAAAAAAAAAAAAAAAAAAAAAAAAAAAAAAAAAAAAAAAAAAAAAAAAAAAAAAAAAAAAAAAAAAAAAAAAAAAAAAAAAAAAAAAAAAAAAAAAAAAAAAAAAAAAAAAAAAAAAAAAAAAAAAAAAAAAAAAAAAAAAAAAAAAAAAAAAAAAAAAAAAAAAAAAAAAAAAAAAAAAAAAAAAAAAAAAAAAAAAAAAAAAAAAAAAAAAAAAAAAAAAAAAAAAAAAAAAAAAAAAAAAAAAAAAAAAAAAAAAAAAAAAAAAAAAAAAAAAAAAAAAAAAAAAAAAAAAAAAAAAAAAAAAAAAAAAAAAAAAAAAAAAAAAAAAAAAAAAAAAAAAAAAAAAAAAAAAAAAAAAAAAAAAAAAAAAAAAAAAAAAAAAAAAAAAAAAAAAAAAAAAAAAAAAAAAAAAAAAAAAAAAAAAAAAAAAAAAAAAAAAAAAAAAAAAAAAAAAAAAAAAAAAAAAAAAAAAAAAAAAAAAAAAAAAAAAAAAAAAAAAAAAAAAAAAAAAAAAAAAAAAAAAAAAAAAAAAAAAAAAAAAAAAAAAAAAAAAAAAAAAAAAAAAAAAAAAAAAAAAAAAAAAAAAAAAAAAAAAAAAAAAAAAAAAAAAAAAAAAAAAAAAAAAAAAAAAAAAAAAAAAAAAAAAAAAAAAAAAAAAAAAAAAAAAAAAAAAAAAAAAAAAAAAAAAAAAAAAAAAAAAAAAAAAAAAAAAAAAAAAAAAAAAAAAAAAAAAAAAAAAAAAAAAAAAAAAAAAAAAAAAAAAAAAAAAAAAAAAAAAAAAAAAAAAAAAAAAAAAAAAAAAAAAAAAAAAAAAAAAAAAAAAAAAAAAAAAAAAAAAAAAAAAAAAAAAAAAAAAAAAAAAAAAAAAAAAAAAAAAAAAAAAAAAAAAAAAAAAAAAAAAAAAAAAAAAAAAAAAAAAAAAAAAAAAAAAAAAAAAAAAAAAAAAAAAAAAAAAAAAAAAAAAAAAAAAA9lhA2uCkX7oetZ1vIJc06TcLgjivMhUmKW4fbU7yn3PqpqJPuIEPimBPUgYDTpwkXeOJuHb3MfBESRkrw5LHgQFwXwAAFgJqdW1iAAAAR2p1bWRjMm1hABEAEIAAAKoAOJtxA3VybjpjMnBhOjRmMjU5Y2IwLWZlOTYtNDZjMS05OGIwLWYyODUxY2U5MGM1NwAAAAtBanVtYgAAAClqdW1kYzJhcwARABCAAACqADibcQNjMnBhLmFzc2VydGlvbnMAAAAIXmp1bWIAAABEanVtZGNib3IAEQAQgAAAqgA4m3ETYzJwYS5pbmdyZWRpZW50LnYzAAAAABhjMnNo8iKnWN6n2hGYIqkey7WNRAAACBJjYm9yp2xyZWxhdGlvbnNoaXBocGFyZW50T2ZoZGM6dGl0bGVmc291cmNlaWRjOmZvcm1hdG1pbWFnZS9zdmcreG1scXZhbGlkYXRpb25SZXN1bHRzom5hY3RpdmVNYW5pZmVzdKNnc3VjY2Vzc4ajZGNvZGV4HWNsYWltU2lnbmF0dXJlLmluc2lkZVZhbGlkaXR5Y3VybHhNc2VsZiNqdW1iZj0vYzJwYS91cm46YzJwYTo1NDZlNWViYy04M2RiLTQxODUtOTU1My04NDkwZjJjMjU0NzgvYzJwYS5zaWduYXR1cmVrZXhwbGFuYXRpb251Y2xhaW0gc2lnbmF0dXJlIHZhbGlko2Rjb2RleBhjbGFpbVNpZ25hdHVyZS52YWxpZGF0ZWRjdXJseE1zZWxmI2p1bWJmPS9jMnBhL3VybjpjMnBhOjU0NmU1ZWJjLTgzZGItNDE4NS05NTUzLTg0OTBmMmMyNTQ3OC9jMnBhLnNpZ25hdHVyZWtleHBsYW5hdGlvbnVjbGFpbSBzaWduYXR1cmUgdmFsaWSjZGNvZGV4GWFzc2VydGlvbi5oYXNoZWRVUkkubWF0Y2hjdXJseF5zZWxmI2p1bWJmPS9jMnBhL3VybjpjMnBhOjU0NmU1ZWJjLTgzZGItNDE4NS05NTUzLTg0OTBmMmMyNTQ3OC9jMnBhLmFzc2VydGlvbnMvYzJwYS5hY3Rpb25zLnYya2V4cGxhbmF0aW9ueD5oYXNoZWQgdXJpIG1hdGNoZWQ6IHNlbGYjanVtYmY9YzJwYS5hc3NlcnRpb25zL2MycGEuYWN0aW9ucy52MqNkY29kZXgZYXNzZXJ0aW9uLmhhc2hlZFVSSS5tYXRjaGN1cmx4XXNlbGYjanVtYmY9L2MycGEvdXJuOmMycGE6NTQ2ZTVlYmMtODNkYi00MTg1LTk1NTMtODQ5MGYyYzI1NDc4L2MycGEuYXNzZXJ0aW9ucy9jMnBhLmhhc2guZGF0YWtleHBsYW5hdGlvbng9aGFzaGVkIHVyaSBtYXRjaGVkOiBzZWxmI2p1bWJmPWMycGEuYXNzZXJ0aW9ucy9jMnBhLmhhc2guZGF0YaNkY29kZXgZYXNzZXJ0aW9uLmhhc2hlZFVSSS5tYXRjaGN1cmx4YXNlbGYjanVtYmY9L2MycGEvdXJuOmMycGE6NTQ2ZTVlYmMtODNkYi00MTg1LTk1NTMtODQ5MGYyYzI1NDc4L2MycGEuYXNzZXJ0aW9ucy9jMnBhLmluZ3JlZGllbnQudjNrZXhwbGFuYXRpb254QWhhc2hlZCB1cmkgbWF0Y2hlZDogc2VsZiNqdW1iZj1jMnBhLmFzc2VydGlvbnMvYzJwYS5pbmdyZWRpZW50LnYzo2Rjb2RleBhhc3NlcnRpb24uZGF0YUhhc2gubWF0Y2hjdXJseF1zZWxmI2p1bWJmPS9jMnBhL3VybjpjMnBhOjU0NmU1ZWJjLTgzZGItNDE4NS05NTUzLTg0OTBmMmMyNTQ3OC9jMnBhLmFzc2VydGlvbnMvYzJwYS5oYXNoLmRhdGFrZXhwbGFuYXRpb25vZGF0YSBoYXNoIHZhbGlkbWluZm9ybWF0aW9uYWyAZ2ZhaWx1cmWBo2Rjb2RleBtzaWduaW5nQ3JlZGVudGlhbC51bnRydXN0ZWRjdXJseE1zZWxmI2p1bWJmPS9jMnBhL3VybjpjMnBhOjU0NmU1ZWJjLTgzZGItNDE4NS05NTUzLTg0OTBmMmMyNTQ3OC9jMnBhLnNpZ25hdHVyZWtleHBsYW5hdGlvbngdc2lnbmluZyBjZXJ0aWZpY2F0ZSB1bnRydXN0ZWRwaW5ncmVkaWVudERlbHRhc4GidmluZ3JlZGllbnRBc3NlcnRpb25VUkl4YXNlbGYjanVtYmY9L2MycGEvdXJuOmMycGE6NTQ2ZTVlYmMtODNkYi00MTg1LTk1NTMtODQ5MGYyYzI1NDc4L2MycGEuYXNzZXJ0aW9ucy9jMnBhLmluZ3JlZGllbnQudjNwdmFsaWRhdGlvbkRlbHRhc6Nnc3VjY2Vzc4GjZGNvZGV4HWluZ3JlZGllbnQubWFuaWZlc3QudmFsaWRhdGVkY3VybHg+c2VsZiNqdW1iZj0vYzJwYS91cm46YzJwYTo3NWJhMDE5ZC1kNjJiLTQ0NzYtYTcxZC1mNTAyMTdmOTU3MDFrZXhwbGFuYXRpb253aW5ncmVkaWVudCBoYXNoIG1hdGNoZWRtaW5mb3JtYXRpb25hbIBnZmFpbHVyZYBqaW5zdGFuY2VJRHgseG1wOmlpZDoxYzdkMjdjNS01ZjAwLTQyZjQtOGJlZC01ZTM3YzlhMmRlMjhuYWN0aXZlTWFuaWZlc3SjY3VybHg+c2VsZiNqdW1iZj0vYzJwYS91cm46YzJwYTo1NDZlNWViYy04M2RiLTQxODUtOTU1My04NDkwZjJjMjU0NzhjYWxnZnNoYTI1NmRoYXNoWCAHoS1ImzMhAs0Vx+HjQmTW6O1jRA9jgouIp2R8o5DqX25jbGFpbVNpZ25hdHVyZaNjdXJseE1zZWxmI2p1bWJmPS9jMnBhL3VybjpjMnBhOjU0NmU1ZWJjLTgzZGItNDE4NS05NTUzLTg0OTBmMmMyNTQ3OC9jMnBhLnNpZ25hdHVyZWNhbGdmc2hhMjU2ZGhhc2hYIC5INOFcmcJCvWcxWWl0Qux2J0k1fFaP4hjRIZjQ7YEpAAAB7mp1bWIAAABBanVtZGNib3IAEQAQgAAAqgA4m3ETYzJwYS5hY3Rpb25zLnYyAAAAABhjMnNogGOXQa5hUh1TrOo07dHO5QAAAaVjYm9yoWdhY3Rpb25zgqJmYWN0aW9ua2MycGEub3BlbmVkanBhcmFtZXRlcnOha2luZ3JlZGllbnRzgaJjdXJseC1zZWxmI2p1bWJmPWMycGEuYXNzZXJ0aW9ucy9jMnBhLmluZ3JlZGllbnQudjNkaGFzaFggAEHmRj9oumK31H58scNvHjQk4ljnnqEZrsXZLRdnsnekZmFjdGlvbmxjMnBhLmNyZWF0ZWRqcGFyYW1ldGVyc6FraW5ncmVkaWVudHOBomN1cmx4LXNlbGYjanVtYmY9YzJwYS5hc3NlcnRpb25zL2MycGEuaW5ncmVkaWVudC52M2RoYXNoWCAAQeZGP2i6YrfUfnyxw28eNCTiWOeeoRmuxdktF2eyd3FkaWdpdGFsU291cmNlVHlwZXhBaHR0cDovL2N2LmlwdGMub3JnL25ld3Njb2Rlcy9kaWdpdGFsc291cmNldHlwZS9jb21wb3NpdGVTeW50aGV0aWNrZGVzY3JpcHRpb254H0NvbXBvc2VkIGluIHRoZSBSZWNyYWZ0IGVkaXRvci4AAADEanVtYgAAAEBqdW1kY2JvcgARABCAAACqADibcRNjMnBhLmhhc2guZGF0YQAAAAAYYzJzaMpOA0MHpNIfoU/mT0Fj3kkAAAB8Y2JvcqVqZXhjbHVzaW9uc4GiZXN0YXJ0GOhmbGVuZ3RoGWwUZG5hbWVuanVtYmYgbWFuaWZlc3RjYWxnZnNoYTI1NmRoYXNoWCA+FotIbMkR0/4JPxYeC0BiAzuXIPSYiO8Gr7womfg5GGNwYWRJAAAAAAAAAAAAAAAClmp1bWIAAAAnanVtZGMyY2wAEQAQgAAAqgA4m3EDYzJwYS5jbGFpbS52MgAAAAJnY2JvcqdqaW5zdGFuY2VJRHgseG1wOmlpZDoyYWI1ZDE1NC1mMGFhLTQ5MmItOTYxOC1iOTRiZDgxNGU0NDl0Y2xhaW1fZ2VuZXJhdG9yX2luZm+jZG5hbWVqcmVjcmFmdC5haWd2ZXJzaW9ueCg4MWNlODJlMmM1YzNjYmZiZThjNmZiZTE3OWQ1ZjhkOTFjNDA5Y2Uxd29yZy5jb250ZW50YXV0aC5jMnBhX3JzZjAuOTAuN2lzaWduYXR1cmV4TXNlbGYjanVtYmY9L2MycGEvdXJuOmMycGE6NGYyNTljYjAtZmU5Ni00NmMxLTk4YjAtZjI4NTFjZTkwYzU3L2MycGEuc2lnbmF0dXJlcmNyZWF0ZWRfYXNzZXJ0aW9uc4KiY3VybHgqc2VsZiNqdW1iZj1jMnBhLmFzc2VydGlvbnMvYzJwYS5hY3Rpb25zLnYyZGhhc2hYIK2e5AH2P3B97tkdd/BUanhV9kuiN+SoiJPmGgWtMtyeomN1cmx4KXNlbGYjanVtYmY9YzJwYS5hc3NlcnRpb25zL2MycGEuaGFzaC5kYXRhZGhhc2hYIG4q3f4ngcoy5254184TbDq+okcyLDhnTZJcjshpdcaCc2dhdGhlcmVkX2Fzc2VydGlvbnOBomN1cmx4LXNlbGYjanVtYmY9YzJwYS5hc3NlcnRpb25zL2MycGEuaW5ncmVkaWVudC52M2RoYXNoWCAAQeZGP2i6YrfUfnyxw28eNCTiWOeeoRmuxdktF2eyd2hkYzp0aXRsZW1SZWNyYWZ0IEltYWdlY2FsZ2ZzaGEyNTYAAAfcanVtYgAAAChqdW1kYzJjcwARABCAAACqADibcQNjMnBhLnNpZ25hdHVyZQAAAAesY2JvctKEWQOwogEmGCGCWQHnMIIB4zCCAYmgAwIBAgIJALfeWmNDUW56MAoGCCqGSM49BAMCMEAxHzAdBgNVBAMMFlJlY3JhZnQgU3RhZ2luZyBEZXYgQ0ExEDAOBgNVBAoMB1JlY3JhZnQxCzAJBgNVBAYTAlVTMB4XDTI2MDYxMjE5NDM1MFoXDTI3MDYxMjE5NDM1MFowNzELMAkGA1UEBhMCVVMxEzARBgNVBAoTClJlY3JhZnQgQUkxEzARBgNVBAMTCnJlY3JhZnQuYWkwWTATBgcqhkjOPQIBBggqhkjOPQMBBwNCAARKaTVbACsg/DeG3LeOxYdID/VA6EFG73E6Oknb+KIiCFJygRUz4ueN2z/t2qYb6CIUvS8RvgOiiClfoqsYtw81o3UwczAMBgNVHRMBAf8EAjAAMA4GA1UdDwEB/wQEAwIGwDATBgNVHSUEDDAKBggrBgEFBQcDBDAdBgNVHQ4EFgQULzHpBen96SL1y4IPHa8MkMshXf0wHwYDVR0jBBgwFoAUAgsqOBrKqpdK//m/kxZo7ZR4ebcwCgYIKoZIzj0EAwIDSAAwRQIgU8hKW0aXvvk8SQgVFNkax69Ym9ae8GsT2RZTQw+B51ACIQC0D4BkEoRD4N0r2ZRkNy0HZaW3WICy/QZGN95ilF4yzFkBvTCCAbkwggFfoAMCAQICCQCc+Wg7T6ATbzAKBggqhkjOPQQDAjBAMR8wHQYDVQQDDBZSZWNyYWZ0IFN0YWdpbmcgRGV2IENBMRAwDgYDVQQKDAdSZWNyYWZ0MQswCQYDVQQGEwJVUzAeFw0yNjA2MTIxOTQwMTZaFw0yODA2MTExOTQwMTZaMEAxHzAdBgNVBAMMFlJlY3JhZnQgU3RhZ2luZyBEZXYgQ0ExEDAOBgNVBAoMB1JlY3JhZnQxCzAJBgNVBAYTAlVTMFkwEwYHKoZIzj0CAQYIKoZIzj0DAQcDQgAEQ9IQBlcVbKaKPYrQSfOhL/00s7xUDC7RinIuLO/I1k99y9yh6oWF9kPxaP+tx1v1PeOL3yrVquJ730H0ZGiDyqNCMEAwDwYDVR0TAQH/BAUwAwEB/zAOBgNVHQ8BAf8EBAMCAYYwHQYDVR0OBBYEFAILKjgayqqXSv/5v5MWaO2UeHm3MAoGCCqGSM49BAMCA0gAMEUCIFQwNImLlYDeQhjgF+ZiqTbgcuzSqmOJw3Q2lQ/hu83FAiEA9O8cLm/xfoVLqB4jtdbuHzi3WL+p2RN+DRGkwpYswVuhY3BhZFkDpAAAAAAAAAAAAAAAAAAAAAAAAAAAAAAAAAAAAAAAAAAAAAAAAAAAAAAAAAAAAAAAAAAAAAAAAAAAAAAAAAAAAAAAAAAAAAAAAAAAAAAAAAAAAAAAAAAAAAAAAAAAAAAAAAAAAAAAAAAAAAAAAAAAAAAAAAAAAAAAAAAAAAAAAAAAAAAAAAAAAAAAAAAAAAAAAAAAAAAAAAAAAAAAAAAAAAAAAAAAAAAAAAAAAAAAAAAAAAAAAAAAAAAAAAAAAAAAAAAAAAAAAAAAAAAAAAAAAAAAAAAAAAAAAAAAAAAAAAAAAAAAAAAAAAAAAAAAAAAAAAAAAAAAAAAAAAAAAAAAAAAAAAAAAAAAAAAAAAAAAAAAAAAAAAAAAAAAAAAAAAAAAAAAAAAAAAAAAAAAAAAAAAAAAAAAAAAAAAAAAAAAAAAAAAAAAAAAAAAAAAAAAAAAAAAAAAAAAAAAAAAAAAAAAAAAAAAAAAAAAAAAAAAAAAAAAAAAAAAAAAAAAAAAAAAAAAAAAAAAAAAAAAAAAAAAAAAAAAAAAAAAAAAAAAAAAAAAAAAAAAAAAAAAAAAAAAAAAAAAAAAAAAAAAAAAAAAAAAAAAAAAAAAAAAAAAAAAAAAAAAAAAAAAAAAAAAAAAAAAAAAAAAAAAAAAAAAAAAAAAAAAAAAAAAAAAAAAAAAAAAAAAAAAAAAAAAAAAAAAAAAAAAAAAAAAAAAAAAAAAAAAAAAAAAAAAAAAAAAAAAAAAAAAAAAAAAAAAAAAAAAAAAAAAAAAAAAAAAAAAAAAAAAAAAAAAAAAAAAAAAAAAAAAAAAAAAAAAAAAAAAAAAAAAAAAAAAAAAAAAAAAAAAAAAAAAAAAAAAAAAAAAAAAAAAAAAAAAAAAAAAAAAAAAAAAAAAAAAAAAAAAAAAAAAAAAAAAAAAAAAAAAAAAAAAAAAAAAAAAAAAAAAAAAAAAAAAAAAAAAAAAAAAAAAAAAAAAAAAAAAAAAAAAAAAAAAAAAAAAAAAAAAAAAAAAAAAAAAAAAAAAAAAAAAAAAAAAAAAAAAAAAAAAAAAAAAAAAAAAAAAAAAAAAAAAAAAAAAAAAAAAAAAAAAAAAAAAAAAAAAAAAAAAAAAAAAAAAAAAAAAAAAAAAAAAAAAAAAAAAAAAAAAAAAAAAAAAAAAAAAAAAAAAAAAAAAAAAAAAAAAAAAAAAAAAAAAAAAAAAAAAAAAAAAAAAAAAAAAAAAAAAAAAAAAAAAAAAAAAAAAA9lhAlWFc1L1298D2HVXbwYE06DyLYbF+Hl9uSKMvx+Ixpk5AgzhNjiBv7I6uVRS7RDSisDUw+PgTdAN8KmDcA60AXA==</c2pa:manifest></metadata><clipPath id="cl_3"><rect width="860" height="830"/></clipPath><g clip-path="url(#cl_3)"><path fill="#DFAD40" transform="translate(-83 -100)" d="M493.719 102.286C507.102 101.269 529.06 101.874 542.386 102.873C658.572 111.78 766.488 166.383 842.485 254.717C850.951 248.565 864.623 236.096 872.992 228.946C873.601 238.536 873.443 251.161 873.501 260.833C873.562 278.104 873.721 295.375 873.978 312.644C846.375 308.942 815.961 304.679 788.388 301.836C793.741 296.243 806.085 286.45 812.461 281.384C808.826 277.528 805.142 273.718 801.411 269.955C725.166 193.085 626.496 149.554 518.157 148.847C319.089 147.547 137.424 311.399 136.445 513.98C135.971 611.899 177.193 700.691 245.748 769.403C325.678 849.517 428.379 887.457 540.597 887.499C542.923 887.486 545.249 887.435 547.573 887.346C645.806 883.162 739.753 845.957 814.215 781.75C825.528 771.981 837.259 760.818 847.66 750.136C856.357 741.202 864.544 731.321 873.03 722.152L873.035 758.37C866.788 765.612 860.073 773.711 853.7 780.655C772.097 869.376 658.894 922.471 538.502 928.491C419.008 933.35 302.518 890.313 214.885 808.932C138.71 738.702 88.406 635.95 84.2894 531.969C80.6519 425.609 119.32 322.144 191.823 244.24C269.473 160.292 379.028 106.837 493.719 102.286Z"/><path fill="#FEFEFE" transform="translate(-83 -100)" d="M504.843 426.668C587.57 419.378 607.169 543.853 562.896 594.097C550.167 608.543 537.914 614.717 519.18 617.476C501.31 617.941 488.138 616.856 472.891 605.832C453.213 591.201 441.846 566.645 438.251 542.913C430.771 493.543 449.505 435.224 504.843 426.668ZM516.032 608.979C581.97 599.385 576.467 429.781 508.364 435.699C498.038 436.595 487.656 441.784 481.131 450.094C461.514 475.081 459.397 507.724 461.533 538.075C463.612 567.614 478.042 613.921 516.032 608.979Z"/><path fill="#DFAD40" transform="translate(-83 -100)" d="M750.295 429.372C754.236 429.121 760.864 429.396 765.007 429.434C782.122 490.958 801.897 552.926 819.947 614.346L798.21 614.505C797.089 611.198 796.037 607.534 795.108 604.161C789.93 585.369 783.309 566.527 778.66 547.619L767.036 547.617C753.367 547.62 739.337 547.842 725.7 547.613L707.087 614.641L697.256 614.48L750.295 429.372ZM752.875 538.47L775.989 538.471C773.514 530.339 753.09 459.471 751.291 457.378C747.98 467.749 744.99 479.341 742.043 489.903L728.248 538.445L752.875 538.47Z"/><path fill="#DFAD40" transform="translate(-83 -100)" d="M831.276 429.438L849.715 429.499C877.241 476.647 903.737 526.352 931.799 573.012C931.198 557.903 931.628 539.017 931.6 523.732L931.46 429.832C934.381 429.744 937.547 429.787 940.491 429.768L940.643 614.095L931.409 614.059C930.403 612.6 929.406 610.859 928.475 609.327C918.862 591.743 908.368 574.507 898.599 556.995C879.385 522.55 859.12 488.53 840.339 453.857C840.813 472.133 840.245 492.474 840.225 510.93L840.484 614.446L831.441 614.44L831.276 429.438Z"/><path fill="#FEFEFE" transform="translate(-83 -100)" d="M368.319 426.686C397.478 423.346 418.104 438.727 429.091 464.767C426.5 467.448 421.764 471.236 418.798 473.755C411.191 456.594 403.665 440.02 383.283 436.361C347.156 429.876 329.829 465.252 324.864 495.488C319.876 526.428 322.506 563.966 340.736 590.368C355.4 611.605 380.207 615.13 400.672 599.955C412.34 589.792 416.877 577.153 420.973 562.647L430.747 566.21C424.98 592.093 412.036 613.169 383.952 617.29C365.941 620.075 347.573 615.406 333.079 604.359C285.04 567.93 287.362 463.238 343.13 434.239C351.583 429.844 358.972 427.863 368.319 426.686Z"/><path fill="#DFAD40" transform="translate(-83 -100)" d="M640.355 427.197C657.717 423.977 673.009 433.976 684.57 445.664L677.346 454.06L676.776 453.352C663.792 437.445 644.822 428.151 625.815 442.43C618.494 447.93 615.885 456.669 615.071 465.481C612.47 493.623 640.222 502.296 660.7 512.165C668.994 516.358 676.603 521.517 682.719 528.583C701.34 550.098 696.544 588.6 675.037 606.453C663.606 615.942 649.795 618.35 635.387 616.975C634.546 616.846 633.707 616.711 632.868 616.57C616.336 613.78 605.163 604.504 595.628 591.126L604.417 581.678C608.708 588.479 611.86 594.595 618.206 599.781C625.904 606.074 636.334 609.826 646.306 608.743C654.802 607.829 662.574 603.538 667.873 596.835C674.772 587.985 676.504 577.654 675.207 566.548C671.702 536.551 636.996 534.596 617.075 518.006C606.373 509.768 600.545 499.675 598.916 486.115C595.456 457.306 609.546 430.385 640.355 427.197Z"/><path fill="#FEFEFE" transform="translate(-83 -100)" d="M208.464 429.337C235.68 430.066 265.972 429.422 293.392 429.451L293.411 438.57C273.002 439.19 250.622 438.623 230.034 438.613L230.072 512.463L278.507 512.418L278.557 521.54L230.038 521.573L230.053 567.25L230.143 605.349L295.047 605.459L295.085 614.421L208.494 614.5L208.464 429.337Z"/><path fill="#FEFEFE" transform="translate(-83 -100)" d="M580.146 708.638C586.561 708.964 592.245 710.722 595.559 716.716C597.629 720.529 598.077 725.014 596.801 729.161C594.884 735.316 590.892 737.563 585.675 740.219C591.815 743.924 597.129 739.489 598.787 742.691C598.415 743.96 597.82 744.283 596.826 745.201C586.51 748.942 586.165 744.193 578.2 740.35C571.765 737.244 566.523 736.478 564.925 727.249C564.212 723.113 565.205 718.865 567.676 715.473C571.09 710.811 574.849 709.508 580.146 708.638ZM582.259 735.748C588.447 735.18 593.03 729.743 592.54 723.547C592.05 717.352 586.67 712.702 580.469 713.114C576.389 713.386 572.769 715.831 570.994 719.516C569.22 723.2 569.564 727.555 571.896 730.915C574.227 734.275 578.186 736.121 582.259 735.748Z"/><path fill="#FEFEFE" transform="translate(-83 -100)" d="M638.568 708.62C640.477 708.559 642.385 708.749 644.244 709.186C653.467 711.413 658.445 719.599 655.809 728.72C654.022 734.899 649.578 737.54 644.309 740.181C651.395 743.969 650.737 741.023 656.681 741.469L657.17 742.285C656.94 743.651 656.386 743.987 655.423 745.032C646.294 749.91 643.818 743.104 637.216 740.018C630.682 736.965 625.921 736.79 624.068 727.264C623.283 723.139 624.2 718.871 626.611 715.433C629.897 710.756 633.386 709.541 638.568 708.62ZM643.721 735.292C649.69 733.338 652.923 726.896 650.923 720.943C648.923 714.99 642.456 711.807 636.519 713.854C630.647 715.878 627.507 722.258 629.485 728.146C631.463 734.033 637.819 737.223 643.721 735.292Z"/><path fill="#FEFEFE" transform="translate(-83 -100)" d="M835.165 657.506C844.024 656.255 852.223 662.411 853.494 671.267C854.764 680.123 848.625 688.335 839.772 689.624C830.892 690.917 822.65 684.756 821.375 675.874C820.101 666.991 826.28 658.761 835.165 657.506ZM840.715 684.478C844.681 683.298 847.695 680.062 848.591 676.023C849.488 671.984 848.125 667.777 845.031 665.03C841.937 662.283 837.598 661.429 833.693 662.798C827.854 664.845 824.714 671.178 826.621 677.066C828.528 682.953 834.784 686.243 840.715 684.478Z"/><path fill="#FEFEFE" transform="translate(-83 -100)" d="M256.334 658.014C261.972 656.47 268.004 658.091 272.107 662.254C276.211 666.417 277.746 672.471 276.121 678.086C274.496 683.701 269.965 688 264.272 689.328C255.701 691.328 247.105 686.098 244.942 677.565C242.779 669.033 247.845 660.34 256.334 658.014ZM264.206 684.3C270.179 682.266 273.355 675.76 271.285 669.8C269.215 663.84 262.69 660.703 256.742 662.81C250.846 664.898 247.743 671.355 249.795 677.264C251.847 683.173 258.285 686.316 264.206 684.3Z"/><path fill="#FEFEFE" transform="translate(-83 -100)" d="M458.655 657.976C467.297 655.701 476.144 660.88 478.391 669.529C480.638 678.179 475.431 687.009 466.775 689.228C458.157 691.438 449.375 686.26 447.138 677.649C444.901 669.038 450.051 660.24 458.655 657.976ZM466.209 684.464C470.106 683.235 473.043 680.008 473.9 676.013C474.757 672.017 473.402 667.87 470.352 665.151C467.302 662.431 463.026 661.56 459.155 662.868C453.254 664.863 450.06 671.237 451.994 677.158C453.928 683.078 460.269 686.338 466.209 684.464Z"/><path fill="#050B10" fill-opacity="0.0078431377" transform="translate(-83 -100)" d="M459.155 662.868C463.026 661.56 467.302 662.431 470.352 665.151C473.402 667.87 474.757 672.017 473.9 676.013C473.043 680.008 470.106 683.235 466.209 684.464C460.269 686.338 453.928 683.078 451.994 677.158C450.06 671.237 453.254 664.863 459.155 662.868Z"/><path fill="#FEFEFE" transform="translate(-83 -100)" d="M862.745 657.947C872.701 657.842 890.599 655.599 887.234 672.238C886.597 675.386 883.906 677.043 881.299 678.514C883.619 681.865 885.831 685.045 887.977 688.521C886.689 689.273 885.072 689.197 883.473 689.329C881.73 688.226 877.946 681.642 876.596 679.468L868.031 679.445C868.112 681.953 868.681 687.018 867.171 688.807C865.298 689.089 865.367 689.077 863.494 688.736C862.304 686.331 862.769 661.931 862.745 657.947ZM868.119 674.983C872.863 675.027 876.777 675.62 880.919 673.442C887.463 662.332 875.066 662.263 867.806 662.184C868.04 666.667 868.16 670.498 868.119 674.983Z"/><path fill="#FEFEFE" transform="translate(-83 -100)" d="M487.906 658.071C497.197 658.196 515.06 655.673 512.599 671.064C512.035 674.592 508.731 676.837 505.917 678.557C507.803 681.259 512.134 686.172 511.799 688.947L509.479 689.638C506.474 688.267 503.444 682.643 501.498 679.614C498.11 679.068 496.49 679.085 493.071 679.07C493.092 680.888 493.452 687.81 492.771 688.837C490.951 688.971 490.5 689.103 488.714 688.56C487.416 685.958 487.943 662.655 487.906 658.071ZM493.018 674.996C497.648 675.124 502.993 675.995 506.448 673.024C511.781 661.721 500.469 662.211 492.972 662.33L493.018 674.996Z"/><path fill="#FEFEFE" transform="translate(-83 -100)" d="M423.769 729.878C426.401 724.503 429.496 719.272 432.601 714.159C433.998 711.857 435.488 708.344 438.516 709.181C441.301 712.678 440.208 733.563 440.132 739.512C438.848 740.334 436.857 740.302 435.487 739.72C434.806 736.774 435.014 732.147 435.026 728.98L434.994 718.621C432.834 722.334 426.864 734.687 423.177 735.533C420.27 734.285 414.111 722.569 411.869 718.865C411.881 721.621 412.233 737.766 411.702 739.416C410.336 740.049 408.496 740.057 407.316 739.09C406.61 735.565 406.991 713.582 407.009 708.638C411.655 709.337 412.992 712.16 415.387 715.935C418.277 720.491 421.002 725.24 423.769 729.878Z"/><path fill="#FEFEFE" transform="translate(-83 -100)" d="M696.432 708.722C700.328 708.964 701.516 710.432 703.527 713.66C706.872 719.032 710.071 724.838 713.233 730.304C714.892 726.757 723.378 710.284 726.018 709.1C727.758 709.156 727.8 708.858 728.956 709.71C729.331 713.078 729.861 736.665 729.137 739.681C727.529 740.234 726.682 740.067 725 739.986C724.041 738.705 724.453 731.725 724.48 729.625L724.43 718.489C722.336 722.266 716.423 735.169 712.486 735.786C709.533 734.309 703.312 722.158 701.035 718.387C701.19 721.528 701.906 737.97 700.374 739.546C698.703 739.752 698.899 739.915 697.389 739.48C695.768 735.764 696.415 714.094 696.432 708.722Z"/><path fill="#FEFEFE" transform="translate(-83 -100)" d="M923.215 658.014L923.977 657.996C924.951 657.968 927.489 657.779 927.845 658.306C930.973 662.938 940.038 683.923 941.434 688.241L941.074 688.891C939.297 689.876 940.16 689.801 938.471 689.558C933.786 686.076 936.249 681.734 929.625 681.552L917.872 681.534C915.97 686.372 916.282 689.306 910.715 688.903L910.235 688.181C911.187 684.622 921.199 661.653 923.215 658.014ZM919.816 677.342L927.125 677.402C928.465 677.373 930.375 677.393 931.644 677.219C930.357 674.108 927.038 665.772 925.555 663.32C923.557 667.959 921.644 672.634 919.816 677.342Z"/><path fill="#FEFEFE" transform="translate(-83 -100)" d="M644.443 657.977C646.477 657.898 646.888 657.846 648.851 658.229C650.991 660.027 663.108 687.039 662.453 688.661C660.531 688.86 660.23 688.991 658.388 688.264C656.705 686.743 655.949 683.966 655.086 681.731L649.75 681.708L639.213 681.602C638.01 685.212 636.883 690.954 631.489 688.696C632.137 685.808 634.664 680.575 635.945 677.643C638.821 671.107 641.653 664.551 644.443 657.977ZM641.303 677.412L648.625 677.453C650.221 677.43 651.567 677.697 652.729 677.008C651.903 674.659 648.365 665.332 647.118 663.329C645.142 668.008 643.204 672.702 641.303 677.412Z"/><path fill="#FEFEFE" transform="translate(-83 -100)" d="M548.036 657.979C549.88 657.916 550.513 657.927 552.346 658.1C554.62 659.579 565.183 684.648 566.791 688.676C566.126 689.192 564.627 689.371 563.939 689.161C557.496 687.198 563.167 681.458 554.625 681.453L542.835 681.468L539.777 689.24L534.65 689.111C539.119 678.897 543.354 667.992 548.036 657.979ZM544.643 677.422L552.625 677.461C554.126 677.428 555.423 677.72 556.279 676.964C555.581 674.753 551.928 665.271 550.432 663.839L544.643 677.422Z"/><path fill="#FEFEFE" transform="translate(-83 -100)" d="M286.088 657.875C291.844 657.867 303.6 675.048 307.781 680.252C307.577 676.43 307.109 661.974 307.902 658.809L308.816 658.309C310.823 658.412 311.161 658.057 312.373 659.084C312.827 662.657 312.848 686.594 312.235 689.734C311.437 689.63 309.598 689.395 309.076 688.889C303.128 683.123 295.357 672.65 290.353 666.319C290.941 670.097 291.298 684.794 290.782 688.409L289.984 688.95C288.309 689.013 288.192 689.119 286.58 688.522C285.276 686.011 285.8 662.054 286.088 657.875Z"/><path fill="#FEFEFE" transform="translate(-83 -100)" d="M466.53 708.646C468.115 708.566 468.913 708.412 470.443 708.898C472.709 711.305 471.682 718.103 471.619 721.866C477.029 721.638 482.94 721.724 488.39 721.698C488.294 718.635 487.721 711.517 489.046 709.141C490.795 708.89 490.855 708.981 492.531 709.298C493.916 711.478 493.438 735.883 493.108 739.865C491.594 740.01 490.809 740.23 489.4 739.653C487.406 737.012 488.39 730.354 488.424 726.439L471.633 726.367C471.629 728.938 473.784 743.601 466.956 739.662C465.968 734.172 466.491 715.086 466.53 708.646Z"/><path fill="#FEFEFE" transform="translate(-83 -100)" d="M535.205 708.95C539.817 708.934 553.852 708.167 557.199 709.605C557.446 711.654 557.653 710.75 556.728 712.446C553.724 714.116 544.351 713.324 540.045 713.32C540.219 715.934 540.143 719.353 540.15 722.044C543.103 721.993 554.674 721.097 555.766 724.324C553.134 726.943 543.984 726.251 540.204 726.169C539.961 727.339 540.061 734.121 540.062 735.748C544.122 735.684 554.281 734.848 557.318 736.559C557.928 738.146 557.776 737.283 557.223 739.312C554.695 740.798 539.435 740.186 535.23 740.179C535.31 729.769 535.302 719.359 535.205 708.95Z"/><path fill="#FEFEFE" transform="translate(-83 -100)" d="M730.853 657.975C736.084 658.064 748.126 657.568 752.427 658.296C753.273 659.491 753.024 660.305 752.919 661.797C750.746 662.997 739.032 662.475 735.922 662.438L735.99 671.199C739.274 671.373 748.974 670.789 750.895 671.819C751.108 673.607 751.237 672.777 750.524 674.405C747.976 676.389 740.689 675.508 736.974 675.474L736.362 675.698C735.836 677.299 736.078 682.918 736.105 684.958C740.751 685.043 749.022 684.009 752.718 685.77C753.812 687.202 753.539 686.407 753.51 688.254C751.208 689.64 734.89 689.119 730.899 689.121L730.853 657.975Z"/><path fill="#FEFEFE" transform="translate(-83 -100)" d="M375.005 708.895C379.072 708.929 394.593 708.342 397.233 709.435C397.485 711.084 397.627 710.335 396.818 711.767C393.424 713.545 384.288 712.994 380.07 712.985L380.113 721.995C384.01 721.899 393.016 721.203 395.523 724.25L395.062 725.025C391.222 727.1 385.082 726.542 380.605 726.481C379.709 728.12 380.081 733.544 380.088 735.848C384.457 735.717 393.937 734.753 397.051 736.791C397.643 738.454 397.59 737.62 397.141 739.385C394.697 740.643 379.16 740.056 375.025 740.056L375.005 708.895Z"/><path fill="#FEFEFE" transform="translate(-83 -100)" d="M588.706 657.937C594.925 658.088 604.303 657.432 609.933 658.198C610.762 659.41 610.479 659.879 610.562 661.621C608.543 662.875 596.653 662.396 593.578 662.38C593.89 665.358 593.768 668.295 593.722 671.289C596.231 671.306 607.523 670.589 608.654 671.944C608.637 672.739 608.798 674.34 608.327 674.647C605.959 676.188 597.105 675.57 594.068 675.522C593.714 676.813 593.897 683.198 593.911 684.957C599.712 684.926 605.512 684.806 611.309 684.598C611.289 686.022 611.369 687.692 611.406 689.137C604.04 688.98 596.275 689.117 588.879 689.135L588.706 657.937Z"/><path fill="#FEFEFE" transform="translate(-83 -100)" d="M353.906 658.018C356.008 657.905 356.356 657.839 358.377 658.258C362.045 664.546 352.206 687.548 369.428 684.771C380.261 683.025 372.303 664.547 376.461 658.283C378.316 657.556 377.363 657.681 379.437 658.048C380.674 659.473 380.225 659.509 380.246 662.013C380.361 668.682 381.538 680.381 377.089 685.528C372.189 690.858 362.218 690.405 357.206 685.566C352.947 681.454 353.899 673.822 353.811 668.392C353.755 665.014 353.868 661.41 353.906 658.018Z"/><path fill="#FEFEFE" transform="translate(-83 -100)" d="M750.056 708.629C752.926 708.617 758.884 709.045 760.486 711.743C760.441 713.331 760.35 713.278 759.641 714.737C755.479 713.734 743.071 710.094 744.442 718.463C748.271 723.482 761.609 722.429 762.482 730.25C763.43 738.738 755.547 740.163 749.572 740.564C746.391 740.093 738.539 739.302 739.189 735.044C741.755 732.557 748.714 737.091 752.432 736.235C755.22 735.593 758.072 733.951 757.422 730.711C753.301 725.753 740.803 726.822 739.197 719.028C737.635 711.452 744.422 709.573 750.056 708.629Z"/><path fill="#FEFEFE" transform="translate(-83 -100)" d="M801.418 657.602C804.549 657.458 811.394 658.054 813.126 661.059L812.697 662.354C808.122 665.434 798.867 658.021 796.428 665.821C797.947 673.02 814.759 671.054 814.776 679.536C814.792 687.212 808.152 689.421 801.374 689.54C797.835 689.003 791.729 688.346 791.183 684.205C791.407 683.755 791.631 683.304 791.854 682.854C797.025 682.967 807.411 689.724 809.886 680.973C807.846 673.25 783.962 676.346 793.119 661.78C795.029 658.742 798.177 658.245 801.418 657.602Z"/><path fill="#FEFEFE" transform="translate(-83 -100)" d="M676.678 658.096C680.709 657.698 687.917 657.361 690.451 661.077L690.133 662.362C685.777 665.596 679.431 658.596 674.371 664.202C673.754 665.905 673.657 665.857 674.133 667.685C678.21 673.258 697.428 671.56 690.55 685.076C689.054 688.014 684.537 689.013 681.604 689.633C678.09 689.499 668.442 688.319 668.629 683.83C671.823 681.448 679.08 686.388 682.909 685.081C685.299 684.266 687.806 682.852 687.003 680.127C682.383 674.84 671.648 675.803 668.814 668.652C666.616 663.106 672.485 659.5 676.678 658.096Z"/><path fill="#FEFEFE" transform="translate(-83 -100)" d="M709.422 657.656C712.382 657.863 720.498 658.347 720.315 662.248C717.215 665.999 706.278 657.409 703.856 666.047C705.399 672.548 721.997 670.854 722.093 680.266C722.175 688.349 714.927 689.497 708.439 689.581L707.529 689.42C705.229 688.989 699.854 687.492 698.508 685.483C698.737 684.164 698.642 684.196 699.561 683.251C703.107 682.89 707.307 685.465 710.822 685.519C713.967 685.567 717.554 683.604 717.269 680.079C713.598 675.041 700.699 676.03 699.213 668.125C697.853 660.892 703.736 658.581 709.422 657.656Z"/><path fill="#FEFEFE" transform="translate(-83 -100)" d="M768.657 658.065C769.242 658.013 769.827 657.973 770.413 657.945C773.633 657.789 782.489 657.865 782.503 662.16C779.227 665.316 768.132 658.574 765.193 665.871C767.073 671.92 783.501 671.009 784.203 679.486C784.801 686.707 778.643 688.93 772.841 689.634C769.093 689.423 762.484 688.668 760.906 684.969C761.115 682.932 760.691 683.717 761.944 682.404C768.637 682.43 770.61 689.469 779.372 682.524C781.518 678.061 770.836 675.617 767.753 674.28C757.861 669.987 758.916 661.616 768.657 658.065Z"/><path fill="#FEFEFE" transform="translate(-83 -100)" d="M675.073 708.605C678.784 708.357 684.01 709.362 686.185 712.708L685.377 714.2C681.233 715.617 679.034 712.142 674.734 712.795C671.474 713.29 668.802 714.569 669.244 718.357C672.688 723.73 687.189 722.377 687.203 731.166C687.215 739.277 679.745 740.057 673.656 740.072C669.979 739.785 666.969 739.13 663.931 736.981C663.361 735.45 663.444 736.272 664.111 734.42C667.098 732.385 673.422 736.879 677.235 736.111C680.119 735.53 683.01 734.273 682.071 730.749C678.055 725.786 665.874 727.026 664.206 719.036C662.727 711.947 669.439 709.638 675.073 708.605Z"/><path fill="#FEFEFE" transform="translate(-83 -100)" d="M330.377 658.048C333.471 657.817 343.563 657.432 343.465 661.863C340.348 665.252 330.931 659.835 327.606 664.232C322.475 671.017 344.428 670.449 345.026 679.023C345.588 687.079 340.562 688.679 334.481 689.605C330.454 689.449 323.775 688.945 322.128 684.754C322.57 682.802 322.087 683.498 323.222 682.262C328.428 684.124 337.013 687.829 340.566 682.171C344.07 676.592 323.339 675.527 322.424 668.325C321.568 661.598 324.886 659.597 330.377 658.048Z"/><path fill="#FEFEFE" transform="translate(-83 -100)" d="M513.546 708.655C516.799 708.485 522.835 709.13 524.542 712.196L523.89 713.907C521.385 714.829 506.576 709.361 508.339 718.489C512.417 723.617 525.753 723.101 526.37 730.599C527.021 738.52 518.55 740.004 513.31 740.445C509.763 740.102 505.56 739.499 503.135 736.751C502.671 734.922 502.639 735.808 503.273 733.999C506.398 733.479 517.825 738.804 520.22 734.145C524.925 724.993 504.454 728.207 503.325 719.143C502.389 711.639 506.976 709.706 513.546 708.655Z"/><path fill="#FEFEFE" transform="translate(-83 -100)" d="M224.434 657.611C227.973 657.529 238.092 659.069 237.098 664.244C233.004 667.326 231.06 660.305 223.625 662.52C208.16 667.127 214.529 689.751 231.502 683.76C233.755 682.296 234.32 681.558 236.853 682.784C238.05 686.265 233.432 688.491 230.646 689.122C215.537 692.542 204.277 677.73 212.506 664.425C215.24 660.004 219.65 658.48 224.434 657.611Z"/><path fill="#FEFEFE" transform="translate(-83 -100)" d="M415.511 658.009C421.52 658.06 435.837 657.399 440.979 658.333L441.364 659.177C441.082 661.45 441.544 660.535 440.148 662.118C437.861 662.968 433.373 662.496 430.6 662.454C431.082 667.005 430.98 672.932 431.027 677.605C431.089 680.674 431.554 686.067 430.33 688.697C428.666 689.181 428.339 688.951 426.544 688.79C425.224 687.019 425.892 666.186 425.928 662.406C422.553 662.325 419.254 663.172 416.441 662.105C415.082 660.527 415.55 660.734 415.511 658.009Z"/><path fill="#FEFEFE" transform="translate(-83 -100)" d="M391.058 657.907C393.19 657.792 393.458 657.772 395.529 658.169C396.659 659.878 396.155 680.988 396.137 684.647C400.213 684.602 408.256 684.291 411.983 684.817C412.841 686.147 412.565 687.555 412.521 689.214C405.413 689.134 398.304 689.113 391.196 689.153C391.289 678.737 391.243 668.321 391.058 657.907Z"/><path fill="#FEFEFE" transform="translate(-83 -100)" d="M616.014 703.017C617.141 703.06 618.404 703.181 619.543 703.264L619.875 703.765C619.045 707.808 616.381 714.884 614.953 718.987L605.997 744.623C604.421 744.566 603.158 744.795 602.197 743.597C603.063 739.639 605.443 733.645 606.815 729.644C609.809 720.744 612.875 711.867 616.014 703.017Z"/><path fill="#FEFEFE" transform="translate(-83 -100)" d="M897.344 657.827C899.127 657.798 900.818 657.503 902.211 658.456C902.808 662.318 902.539 683.472 902.588 688.971C900.719 689.051 899.426 689.285 897.697 688.598C897.008 684.727 897.34 663.126 897.344 657.827Z"/><path fill="#FEFEFE" transform="translate(-83 -100)" d="M522.461 657.966C524.501 657.923 525.303 657.746 527.144 658.475C527.781 661.047 527.504 684.992 527.498 689.119C525.806 689.117 524.175 689.355 522.809 688.505C522.179 684.882 522.466 663.027 522.461 657.966Z"/></g></svg>